<svg width="216" height="172" viewBox="0 0 216 172" fill="none" xmlns="http://www.w3.org/2000/svg">
<path fill-rule="evenodd" clip-rule="evenodd" d="M151.5 117C180.495 117 204 93.4949 204 64.5C204 35.5051 180.495 12 151.5 12C122.505 12 99 35.5051 99 64.5C99 93.4949 122.505 117 151.5 117ZM50 160C70.9868 160 88 142.987 88 122C88 101.013 70.9868 84 50 84C29.0132 84 12 101.013 12 122C12 142.987 29.0132 160 50 160Z" fill="#B1DDCC" fill-opacity="0.5"/>
<path d="M129.124 44.3337C128.64 43.9422 128.074 43.664 127.468 43.5198C126.863 43.3756 126.232 43.369 125.624 43.5004C124.047 43.8472 122.415 43.8556 120.835 43.5252C119.255 43.1948 117.763 42.5331 116.457 41.5837C115.743 41.0623 114.883 40.7812 113.999 40.7812C113.115 40.7812 112.254 41.0623 111.54 41.5837C110.235 42.5331 108.743 43.1948 107.163 43.5252C105.582 43.8556 103.95 43.8472 102.374 43.5004C101.765 43.3697 101.135 43.377 100.53 43.5216C99.9249 43.6663 99.3598 43.9446 98.8763 44.3363C98.3927 44.7279 98.003 45.2229 97.7358 45.7848C97.4686 46.3468 97.3306 46.9615 97.332 47.5837V61.3754C97.3256 64.3639 98.015 67.3128 99.3457 69.9887C100.676 72.6645 102.612 74.9938 104.999 76.7921L111.54 81.6254C112.254 82.1469 113.115 82.4279 113.999 82.4279C114.883 82.4279 115.743 82.1469 116.457 81.6254L122.999 76.7921C125.386 74.9938 127.321 72.6645 128.652 69.9887C129.982 67.3128 130.672 64.3639 130.665 61.3754V47.5837C130.667 46.9613 130.53 46.3462 130.263 45.7838C129.997 45.2214 129.607 44.7259 129.124 44.3337ZM122.332 61.3754C122.355 63.0498 121.991 64.7067 121.268 66.2173C120.545 67.7278 119.483 69.051 118.165 70.0837L113.999 73.0004L109.832 70.0004C108.514 68.9676 107.452 67.6444 106.729 66.1339C106.007 64.6234 105.643 62.9664 105.665 61.2921V52.1671C108.577 52.0504 111.424 51.2815 113.999 49.9171C116.573 51.2815 119.421 52.0504 122.332 52.1671V61.3754ZM126.499 86.3754C125.394 86.3754 124.334 86.8144 123.552 87.5958C122.771 88.3772 122.332 89.437 122.332 90.5421V103.042C122.332 104.147 121.893 105.207 121.112 105.988C120.33 106.77 119.27 107.209 118.165 107.209H59.832C58.727 107.209 57.6672 106.77 56.8858 105.988C56.1044 105.207 55.6654 104.147 55.6654 103.042V63.2921L80.1654 87.7921C82.4971 90.1268 85.6574 91.4448 88.957 91.4587C90.6249 91.4629 92.2767 91.1333 93.8153 90.4893C95.3538 89.8453 96.7479 88.8998 97.9154 87.7087L94.9987 84.7504L91.9154 81.9171C91.1365 82.6805 90.0893 83.1081 88.9987 83.1081C87.9081 83.1081 86.8609 82.6805 86.082 81.9171L61.5404 57.4171H84.832C85.9371 57.4171 86.9969 56.9781 87.7783 56.1967C88.5597 55.4153 88.9987 54.3555 88.9987 53.2504C88.9987 52.1453 88.5597 51.0855 87.7783 50.3041C86.9969 49.5227 85.9371 49.0837 84.832 49.0837H59.832C56.5168 49.0837 53.3374 50.4007 50.9932 52.7449C48.649 55.0891 47.332 58.2685 47.332 61.5837V103.25C47.332 106.566 48.649 109.745 50.9932 112.089C53.3374 114.433 56.5168 115.75 59.832 115.75H118.165C121.481 115.75 124.66 114.433 127.004 112.089C129.348 109.745 130.665 106.566 130.665 103.25V90.7504C130.665 89.6453 130.226 88.5855 129.445 87.8041C128.664 87.0227 127.604 86.5837 126.499 86.5837V86.3754Z" fill="#4CB68E"/>
</svg>
