<svg width="262" height="96" viewBox="0 0 262 96" fill="none" xmlns="http://www.w3.org/2000/svg">
<g clip-path="url(#clip0_949_25638)">
<path d="M71.0059 62.6142V26.2033L39.4736 8L7.94141 26.2033V62.6142L39.4736 80.8175L71.0059 62.6142Z" fill="#3C8F91"/>
<path d="M7.94141 26.2031V62.6141L39.4736 80.8173L71.0059 62.6141V26.2031L39.4736 44.4108L7.94141 26.2031Z" fill="#236061"/>
<path d="M58.8465 55.5929V33.2235L39.476 22.041L20.1055 33.2235V55.5929L39.476 66.7754L58.8465 55.5929Z" fill="#D8D8DE"/>
<path d="M20.1032 87.6108L7.94141 80.0479V26.2031L20.1032 33.2239V87.6108Z" fill="#4BB78E"/>
<path d="M20.1055 87.6104L39.476 76.1306V22.041L20.1055 33.2235V87.6104Z" fill="#A6A6AB"/>
<path d="M28.1797 60.2275L39.4759 66.8067L50.772 60.2275L39.4759 53.7051L28.1797 60.2275Z" fill="#D2D4DA"/>
<path d="M39.4759 66.7763L28.1797 60.2539V74.2998L39.4759 80.8178V66.7763Z" fill="#4BB78E"/>
<g filter="url(#filter0_f_949_25638)">
<path d="M50.772 54.8636V41.8232L39.4759 35.3008L28.1797 41.8232V54.8636L39.4759 61.386L50.772 54.8636Z" fill="#236061" fill-opacity="0.8"/>
</g>
<path d="M50.772 50.9281V37.8876L39.4759 31.3652L28.1797 37.8876V50.9281L39.4759 57.4505L50.772 50.9281Z" fill="#397071"/>
<path d="M28.1797 37.8876L39.4759 44.4669L50.772 37.8876L39.4759 31.3652L28.1797 37.8876Z" fill="#4D9293"/>
<path d="M47.0263 35.7237L39.4766 31.3652L47.0263 35.7237Z" fill="#59A580"/>
<path d="M39.4759 44.4679L28.1797 37.8887V50.9291L39.4759 57.4515V44.4679Z" fill="#4BB78E"/>
</g>
<path fill-rule="evenodd" clip-rule="evenodd" d="M102.721 38.3797V47.3548C102.721 47.8304 102.646 48.1434 102.496 48.2936C102.346 48.4438 102.033 48.5189 101.557 48.5189H90.2163V37.2156H101.557C102.033 37.2156 102.346 37.2907 102.496 37.4409C102.646 37.5661 102.721 37.879 102.721 38.3797ZM102.984 35H86.9492V58.3576H90.2163V50.7345H102.984C104.962 50.7345 105.951 49.7456 105.951 47.7678V37.9666C105.951 35.9889 104.962 35 102.984 35ZM110.957 49.5178V40.709H120.455C120.873 40.709 121.135 40.7717 121.239 40.8971C121.364 41.0016 121.427 41.2629 121.427 41.6808V48.546C121.427 48.9431 121.364 49.2043 121.239 49.3297C121.135 49.4551 120.873 49.5178 120.455 49.5178H110.957ZM110.957 58.3579V51.3673H117.007L121.364 58.3579H124.186L119.797 51.3673H121.647C123.298 51.3673 124.123 50.5418 124.123 48.8908V41.336C124.123 39.685 123.298 38.8595 121.647 38.8595H108.23V58.3579H110.957ZM129.275 38.8595H126.516V58.3579H129.275V38.8595ZM144.313 55.5366V50.4269C144.313 50.0298 144.251 49.7686 144.125 49.6432C144.021 49.5178 143.76 49.4551 143.342 49.4551H134.219C132.568 49.4551 131.743 48.6296 131.743 46.9786V41.336C131.743 39.685 132.568 38.8595 134.219 38.8595H144.47C146.121 38.8595 146.947 39.685 146.947 41.336V44.4394H144.188V41.6808C144.188 41.2629 144.125 41.0016 144 40.8971C143.896 40.7717 143.634 40.709 143.216 40.709H135.473C135.076 40.709 134.815 40.7717 134.69 40.8971C134.564 41.0016 134.502 41.2629 134.502 41.6808V46.6338C134.502 47.0518 134.564 47.3235 134.69 47.4488C134.815 47.5533 135.076 47.6056 135.473 47.6056H144.564C146.215 47.6056 147.041 48.4311 147.041 50.0821V55.8814C147.041 57.5324 146.215 58.3579 144.564 58.3579H134.282C132.631 58.3579 131.806 57.5324 131.806 55.8814V52.778H134.564V55.5366C134.564 55.9546 134.627 56.2263 134.752 56.3516C134.878 56.4561 135.139 56.5084 135.536 56.5084H143.342C143.76 56.5084 144.021 56.4561 144.125 56.3516C144.251 56.2263 144.313 55.9546 144.313 55.5366ZM150.023 58.3579H152.406V42.3705L159.02 54.1259H161.528L168.393 42.3705V58.3579H170.776V38.8595H167.797L160.243 51.7435L153.001 38.8595H150.023V58.3579ZM178.49 52.6526H187.768L183.098 40.7404L178.49 52.6526ZM189.994 58.3579L188.489 54.5021H177.769L176.295 58.3579H173.537L181.123 38.8595H185.104L192.721 58.3579H189.994Z" fill="#0F172A"/>
<path d="M211.688 38.3797V54.9777C211.688 55.4784 211.761 55.8039 211.908 55.9541C212.055 56.0793 212.36 56.1419 212.825 56.1419H217.664C218.128 56.1419 218.434 56.0793 218.58 55.9541C218.727 55.8039 218.8 55.4784 218.8 54.9777V38.3797C218.8 37.879 218.727 37.5661 218.58 37.4409C218.434 37.2907 218.128 37.2156 217.664 37.2156H212.825C212.36 37.2156 212.055 37.2907 211.908 37.4409C211.761 37.5661 211.688 37.879 211.688 38.3797ZM207.619 58.3574C205.688 58.3574 204.723 57.3686 204.723 55.3908V37.9666C204.723 35.9889 205.688 35 207.619 35H222.833C224.764 35 225.729 35.9889 225.729 37.9666V55.3908C225.729 57.3686 224.764 58.3574 222.833 58.3574H221.55L226.132 62H218.177L213.998 58.3574H207.619Z" fill="#4BB78E"/>
<path d="M237.839 37.2156V47.7677H243.887C244.352 47.7677 244.657 47.6926 244.804 47.5424C244.951 47.3922 245.024 47.0793 245.024 46.6036V38.3797C245.024 37.879 244.951 37.5661 244.804 37.4409C244.657 37.2907 244.352 37.2156 243.887 37.2156H237.839ZM237.839 49.9833V58.3574H230.763V35H249.203C251.134 35 252.099 35.9889 252.099 37.9666V47.0167C252.099 48.9944 251.134 49.9833 249.203 49.9833H247.554L252.723 58.3574H245.354L240.478 49.9833H237.839Z" fill="#4BB78E"/>
<defs>
<filter id="filter0_f_949_25638" x="-7.82031" y="-0.699219" width="94.5938" height="98.0859" filterUnits="userSpaceOnUse" color-interpolation-filters="sRGB">
<feFlood flood-opacity="0" result="BackgroundImageFix"/>
<feBlend mode="normal" in="SourceGraphic" in2="BackgroundImageFix" result="shape"/>
<feGaussianBlur stdDeviation="18" result="effect1_foregroundBlur_949_25638"/>
</filter>
<clipPath id="clip0_949_25638">
<rect width="62.9508" height="80" fill="white" transform="translate(8 8)"/>
</clipPath>
</defs>
</svg>
